<svg xmlns="http://www.w3.org/2000/svg" width="23.2" height="25.228" viewBox="0 0 23.2 25.228">
  <path id="Path_2320" data-name="Path 2320" d="M842.849,1463v14.6a.148.148,0,0,1-.154.143h-6.834a.149.149,0,0,1-.154-.143v-7.528a3.728,3.728,0,0,0-3.859-3.582h0a3.728,3.728,0,0,0-3.859,3.582v7.528a.148.148,0,0,1-.153.143H821a.148.148,0,0,1-.154-.143v-14.6a.138.138,0,0,1,.051-.106l10.938-9.117a.163.163,0,0,1,.206,0L842.8,1462.9A.139.139,0,0,1,842.849,1463Z" transform="translate(-820.249 -1453.118)" fill="none" stroke="#fff" stroke-miterlimit="10" stroke-width="1.2"/>
</svg>
