<svg xmlns="http://www.w3.org/2000/svg" width="23" height="24" viewBox="0 0 23 24">
  <g id="Group_3149" data-name="Group 3149" transform="translate(-220.075 -501.914)">
    <path id="Path_2306" data-name="Path 2306" d="M-1819.468,423.33a2.2,2.2,0,0,0-2.2,2.2,2.2,2.2,0,0,0,2.2,2.2,2.2,2.2,0,0,0,2.2-2.2A2.2,2.2,0,0,0-1819.468,423.33Zm0,3.3a1.1,1.1,0,0,1-1.1-1.1,1.1,1.1,0,0,1,1.1-1.1,1.1,1.1,0,0,1,1.1,1.1A1.1,1.1,0,0,1-1819.468,426.633Z" transform="translate(2045.877 98.179)" fill="#fff"/>
    <path id="Path_2307" data-name="Path 2307" d="M-1563.468,423.33a2.2,2.2,0,0,0-2.2,2.2,2.2,2.2,0,0,0,2.2,2.2,2.2,2.2,0,0,0,2.2-2.2A2.2,2.2,0,0,0-1563.468,423.33Zm0,3.3a1.1,1.1,0,0,1-1.1-1.1,1.1,1.1,0,0,1,1.1-1.1,1.1,1.1,0,0,1,1.1,1.1A1.1,1.1,0,0,1-1563.468,426.633Z" transform="translate(1802.139 98.179)" fill="#fff"/>
    <path id="Path_2308" data-name="Path 2308" d="M-1885.683,41.506h-17.135v.156l-.214-.765a2.115,2.115,0,0,0-2.007-1.567h-1.437a.533.533,0,0,0-.523.544.533.533,0,0,0,.523.544h1.437a1.057,1.057,0,0,1,1,.783l3.254,11.609-1.667,2.168a1.806,1.806,0,0,0-.368,1.094,1.721,1.721,0,0,0,1.684,1.752h14.521a.533.533,0,0,0,.523-.544.533.533,0,0,0-.523-.544h-14.521a.652.652,0,0,1-.638-.664.682.682,0,0,1,.14-.415l1.68-2.185h10.253a2.1,2.1,0,0,0,1.893-1.249l3.648-8.067a1.82,1.82,0,0,0,.16-.745v-.155A1.72,1.72,0,0,0-1885.683,41.506Zm.638,1.906a.691.691,0,0,1-.061.283l-1.23,2.72h-8.831a.614.614,0,0,0-.6.626v.248a.614.614,0,0,0,.6.626h8.153l-1.74,3.846a1.048,1.048,0,0,1-.946.625h-10.112l-2.745-9.791h16.874a.652.652,0,0,1,.638.664Z" transform="translate(2127.075 462.584)" fill="#fff"/>
  </g>
</svg>
