<svg xmlns="http://www.w3.org/2000/svg" width="25.292" height="24.011" viewBox="0 0 25.292 24.011">
  <path id="Path_2321" data-name="Path 2321" d="M1708.877,1950.47l-.006-.026,0-.01,0-.01,0-.013v0a.157.157,0,0,0-.018-.037l-3.259-5.773-.006-.012-.019-.028a.215.215,0,0,0-.124-.094l-.023,0h-17.848l-.033.006-.014,0-.031.013-.027.022-.008.01-.01.012-.021.028-.015.017-3.286,5.83-.01.023,0,.015-.007.026,0,.017,0,.028v.018l0,.031,0,.021.009.031,0,.01.01.027.021.031,12.2,17.193.01.015.021.022.016.014a.158.158,0,0,0,.222-.022l.025-.023,0,0,12.2-17.2a.273.273,0,0,0,.027-.054l0-.018,0-.007,0-.014v0l0-.017,0-.047Zm-3.839-5.533-3.008,5.242-5.019-5.242Zm-3.5,5.349h-10.109l5.055-5.279Zm-5.577-5.349-5.019,5.242-3.01-5.242Zm-8.4.17,2.972,5.179h-5.9Zm-2.865,5.654h6.08l5.117,15.783Zm11.785,16.338-5.295-16.338h10.589Zm.588-.555,5.116-15.783h6.08Zm5.359-16.258,2.972-5.179,2.923,5.179Z" transform="translate(-1683.843 -1944.212)" fill="#fff" stroke="#fff" stroke-width="0.5"/>
</svg>
