<svg id="Group_3260" data-name="Group 3260" xmlns="http://www.w3.org/2000/svg" width="20.814" height="21.934" viewBox="0 0 20.814 21.934">
  <path id="Path_2199" data-name="Path 2199" d="M-885.189,57.974a2.168,2.168,0,0,1-.977.274,1.559,1.559,0,0,0-1.162.726q-.31.385-.618.771a1.626,1.626,0,0,1-.248-.376,1.765,1.765,0,0,1,.588-.879c-.3-.083-.311-.088-.479.15-.344.487-.549,1.052-.872,1.551-.063.1-.075.33-.3.188a.916.916,0,0,1-.049-.542,1.985,1.985,0,0,0-.236-1.269c.04-.552.042-.563-.526-.7a4.488,4.488,0,0,0-1.979-.1c-.218-.181-.078-.268.1-.326a1.661,1.661,0,0,1,.614.023c.049,0,0-.071.012-.023,0,.012-.008.021-.034.014-.287-.07-.611-.036-.831-.3a1.11,1.11,0,0,1,.855-.1,7.936,7.936,0,0,1,1.6.269c.441.133.44.1.625-.31.269-.6.4-1.247.7-1.828.154-.1.24-.321.48-.267a1.275,1.275,0,0,1-.09.79,8.881,8.881,0,0,0-.342,1.124c.207.265.468.484.662.759.021.115-.009.258.177.271a.605.605,0,0,0,.59-.222c.45-.6.957-1.158,1.426-1.745.134-.168.233-.386.474-.446a.382.382,0,0,1,.4.254,2.093,2.093,0,0,1-.69.974,3.646,3.646,0,0,0-.814,1.057c.255,0,.474-.178.723-.095A1.416,1.416,0,0,1-885.189,57.974Z" transform="translate(901.184 -41.807)" fill="#fff"/>
  <path id="Path_2200" data-name="Path 2200" d="M-1008.033,46.986c-.35-.507-.9-.834-1.216-1.373-.084-.144-.192-.119-.317-.064-.248.108-.5.2-.75.315a4.344,4.344,0,0,1-2.117.393c-.541-.035-.761-.252-.811-.811a4.927,4.927,0,0,1,.319-1.658.286.286,0,0,1,.34-.037c.154.17.027.33-.035.478a2.376,2.376,0,0,0-.217,1.04c.022.483.247.691.736.629a4.288,4.288,0,0,0,1.172-.328c.294-.128.6-.24.893-.36.186-.075.216-.176.084-.334-.222-.265-.478-.5-.69-.773-.095-.122-.228-.238-.121-.421a.669.669,0,0,1,.454-.052c.445.183.65.62.966.938.18.181.3.231.527.121.674-.325,1.408-.515,2.059-.9.112-.065.234-.147.379-.076a.6.6,0,0,1,.091.369c-.045.185-.207.243-.355.288-.617.186-1.167.523-1.762.758-.385.152-.39.2-.131.508a4.932,4.932,0,0,0,.64.661.635.635,0,0,1,.318.548A.884.884,0,0,1-1008.033,46.986Z" transform="translate(1013.252 -31.345)" fill="#fff"/>
  <path id="Path_2201" data-name="Path 2201" d="M-795.761,15.79a.468.468,0,0,0-.378-.228c-.043-.309.223-.446.371-.643.426-.57.851-1.143,1.3-1.692a.259.259,0,0,0-.031-.389c-.129-.139-.326-.238-.32-.471a.455.455,0,0,1,.309-.194.5.5,0,0,1,.4.228c.153.216.268.137.393-.025a4.024,4.024,0,0,0,.23-.373c.075-.123.143-.264.327-.243.093.111.2.209.3.317-.17.226-.325.464-.513.674a.564.564,0,0,0-.056.734,3.285,3.285,0,0,1,.421,1.248,2.618,2.618,0,0,1-.585,1.812c-.119-.07-.143-.2-.195-.311a.389.389,0,0,1,.057-.247,2.523,2.523,0,0,0,.067-2.043c-.112-.356-.224-.376-.445-.078-.418.563-.9,1.073-1.3,1.653C-795.49,15.639-795.554,15.815-795.761,15.79Z" transform="translate(812.269 -1.855)" fill="#fff"/>
  <path id="Path_2202" data-name="Path 2202" d="M-952.983-60.888l1.867,0a1.531,1.531,0,0,1,.283.163.589.589,0,0,0,.8.023,2.424,2.424,0,0,1,.391-.188h.9c-.043.262.08.33.328.325.647-.012,1.3-.009,1.943,0,.44-.024.879-.019,1.318,0,.129.005.332-.038.31.212a.945.945,0,0,1-.574.089q-2.182,0-4.364,0c-.1,0-.2,0-.3,0-.164.011-.186.091-.1.219a2.492,2.492,0,0,1,.339.526c.023.167-.107.238-.207.327-.246.03-.281-.2-.392-.33-.273-.313-.357-.316-.624.01-.138.168-.216.4-.452.471-.155-.024-.31.206-.467,0a1.066,1.066,0,0,1,.358-.666,1.686,1.686,0,0,0,.387-.564c-2,0-3.97,0-5.935,0-.08-.009-.152-.045-.135-.134.022-.116.13-.136.227-.147.339-.038.68.007,1.024-.027.04-.141-.163-.186-.117-.32l.676,0c.038.248.161.385.431.328.554,0,1.109-.023,1.662,0C-953.147-60.549-953.014-60.638-952.983-60.888Z" transform="translate(961.467 65.397)" fill="#fff"/>
  <path id="Path_2203" data-name="Path 2203" d="M-790.012-47.487a15.976,15.976,0,0,1-1.429,1.195c-.174.158-.173.255-.061.416a1.905,1.905,0,0,1,.291.546.474.474,0,0,1-.346.114c-.325-.1-.343-.46-.582-.624-.062.084-.118.231-.291.246a8.377,8.377,0,0,1-1.015-.282c-.137-.053-.279-.093-.328-.257a.869.869,0,0,1,.331-.721c.326-.073.636-.2.955-.294a.9.9,0,0,1,.752.056c.149.131.018.274.014.439a4.627,4.627,0,0,1,1.355-.95C-790.242-47.58-790.107-47.592-790.012-47.487Z" transform="translate(810.073 53.096)" fill="#fff"/>
  <path id="Path_2204" data-name="Path 2204" d="M-959.606,87.138c.094-.2.275-.141.435-.145.025,0,.06,0,.07.016.277.46.649.376,1.051.2a.471.471,0,0,1,.4-.023.262.262,0,0,1,.037.4,1.034,1.034,0,0,1-.358.183c-.342.145-.347.17-.08.448a1.758,1.758,0,0,1,.533.739c.015.19-.031.342-.243.391a.482.482,0,0,1-.388-.245q-.205-.26-.415-.517c-.3-.362-.469-.385-.824-.073A4.563,4.563,0,0,0-960.5,89.88c-.054.107-.083.236-.22.279a.184.184,0,0,1-.22-.124,3.047,3.047,0,0,1,1.534-2.02c.277-.181.33-.3.058-.524A1.707,1.707,0,0,1-959.606,87.138Z" transform="translate(964.825 -71.497)" fill="#fff"/>
  <path id="Path_2205" data-name="Path 2205" d="M-787.571-60.778a2.106,2.106,0,0,0-1.441.218c-.107.035-.191.118-.283-.01a.778.778,0,0,1,.268-.7c.534-.112.533-.112.466-.658a.73.73,0,0,0-.036-.176l.126-.234a1,1,0,0,1,.669-.075c.019.137.037.277.236.229.282-.092.329.181.474.3A1.191,1.191,0,0,1-787.571-60.778Z" transform="translate(805.943 66.839)" fill="#fff"/>
  <path id="Path_2206" data-name="Path 2206" d="M-962.216,128.011l.222.075a.267.267,0,0,1,.062.205,1.688,1.688,0,0,0,1.112,1.62,4.3,4.3,0,0,0,2.552.395.375.375,0,0,1,.252.036c.148.289-.163.295-.265.43a3.826,3.826,0,0,1-2-.143,6.834,6.834,0,0,1-1.329-.645A1.759,1.759,0,0,1-962.216,128.011Z" transform="translate(966.102 -109.473)" fill="#fff"/>
  <path id="Path_2207" data-name="Path 2207" d="M-765.363-80.026c-.236.035-.229-.3-.449-.294a5.876,5.876,0,0,0,.8-1.332c.021-.328.259-.365.512-.383a.225.225,0,0,0,.221.277,1.062,1.062,0,0,1,.9,1.064,1.307,1.307,0,0,1-.744,1.331c-.121-.009-.25.038-.359-.052.086-.314.378-.473.547-.727a.725.725,0,0,0-.45-1.162.269.269,0,0,0-.372.182c-.1.251-.192.507-.309.75C-765.138-80.235-765.163-80.053-765.363-80.026Z" transform="translate(784.19 84.971)" fill="#fff"/>
  <path id="Path_2208" data-name="Path 2208" d="M-764.709-111.366c-.177.119-.413.16-.512.383a2.8,2.8,0,0,1-.815-.523c.025-.171.165-.182.293-.21.867.591.685.42.963-.316a3.5,3.5,0,0,0,.127-.5.176.176,0,0,0-.064-.2c-.081-.051-.133.023-.191.062a3.169,3.169,0,0,0-.622.763c-.225-.149-.134-.339-.044-.462a7.8,7.8,0,0,1,.907-1.165c.109-.1.232-.232.384-.171s.136.249.129.395A6.134,6.134,0,0,1-764.709-111.366Z" transform="translate(784.398 114.303)" fill="#fff"/>
  <path id="Path_2209" data-name="Path 2209" d="M-811.28-60.841c.2.189.169.463.241.7.036.117-.069.172-.175.177-.157.008-.314,0-.471,0-.066-.058-.127-.115-.2,0a.624.624,0,0,1-.349.295.246.246,0,0,1-.289-.1,1.071,1.071,0,0,1,.467-.779.924.924,0,0,0-.246-.076c-.458-.008-.916-.005-1.374-.006-.117-.126-.2-.258-.075-.427.6,0,1.2.011,1.8-.018.362-.017.275.365.517.472C-811.336-60.627-811.35-60.768-811.28-60.841Z" transform="translate(828.627 65.573)" fill="#fff"/>
  <path id="Path_2210" data-name="Path 2210" d="M-1008.507,21.495h-.349a5.924,5.924,0,0,1,.6-1.257c.092-.153.292-.3.126-.518a.872.872,0,0,1,.446-.187c.2.017.278.194.386.32.345.4.666.828,1,1.237a.345.345,0,0,1,.115.334l-.542.007c-.2.02-.267-.151-.355-.276a6.1,6.1,0,0,0-.512-.679c-.126-.135-.22-.127-.316.033a4.622,4.622,0,0,0-.3.591C-1008.273,21.254-1008.305,21.442-1008.507,21.495Z" transform="translate(1009.182 -9.052)" fill="#fff"/>
  <path id="Path_2211" data-name="Path 2211" d="M-880.428,134.834l-.733.971a.871.871,0,0,1-.706.08,4.122,4.122,0,0,0-.654-.058.367.367,0,0,1-.18-.052.548.548,0,0,1-.054-.507.276.276,0,0,1,.408-.036c.2.223.346.1.48-.071.091-.114.108-.277.237-.368a7.035,7.035,0,0,1,1.018-.372C-880.362,134.474-880.416,134.664-880.428,134.834Z" transform="translate(892.482 -115.406)" fill="#fff"/>
  <path id="Path_2212" data-name="Path 2212" d="M-764.532-16.92c.092-.138.235-.078.359-.092.392.507.646,1.1,1.057,1.6a.177.177,0,0,1-.017.26c-.167.2-.329.4-.492.6-.223.018-.31-.1-.312-.307a1.835,1.835,0,0,0-.089-.252.366.366,0,0,1-.013-.337c.109-.136.04-.256-.037-.372a6.414,6.414,0,0,1-.4-.752C-764.524-16.685-764.613-16.788-764.532-16.92Z" transform="translate(783.036 24.78)" fill="#fff"/>
  <path id="Path_2213" data-name="Path 2213" d="M-891.686,149.811l.142.026c.555.07.749.3.763.889-.181.207-.188.5-.337.716l-.942-1.153a.688.688,0,0,1-.3-.217c-.073-.09-.149-.178-.1-.307.148-.153.328-.112.507-.088A.478.478,0,0,1-891.686,149.811Z" transform="translate(901.442 -129.508)" fill="#fff"/>
  <path id="Path_2214" data-name="Path 2214" d="M-798.228,71.868c.2.026.136.2.169.316a8.16,8.16,0,0,1-2.682,1.477.228.228,0,0,1-.225-.289.2.2,0,0,1,.123-.129c.679-.234,1.264-.654,1.914-.946a1.4,1.4,0,0,0,.36-.252C-798.472,71.958-798.39,71.833-798.228,71.868Z" transform="translate(816.735 -57.495)" fill="#fff"/>
  <path id="Path_2215" data-name="Path 2215" d="M-782.92-118.987l-.293.21a2.637,2.637,0,0,1-.953-1.238c-.174-.417-.266-.869-.406-1.3-.044-.137-.02-.191.119-.24.168-.059.182.035.216.151.114.389.227.779.358,1.162A2.7,2.7,0,0,0-782.92-118.987Z" transform="translate(801.574 121.575)" fill="#fff"/>
  <path id="Path_2216" data-name="Path 2216" d="M-842.4-60.836l.075.427c-.679,0-1.357.006-2.036,0-.129,0-.305.065-.379-.065-.1-.17.132-.234.185-.363Z" transform="translate(857.281 65.347)" fill="#fff"/>
  <path id="Path_2217" data-name="Path 2217" d="M-959.151-60.89a1.321,1.321,0,0,1,.419.435c-.439,0-.85-.006-1.261,0-.082,0-.279-.093-.209.148a1.569,1.569,0,0,1,.77.964c-.267.077-.415-.185-.642-.225a.763.763,0,0,1-.454-.6c.093-.238.061-.521.259-.721Z" transform="translate(964.443 65.397)" fill="#fff"/>
  <path id="Path_2218" data-name="Path 2218" d="M-997.817-27.364a14.107,14.107,0,0,1,.852-1.413,4.108,4.108,0,0,0,.265-.52c.226-.091.3.081.394.224a7.86,7.86,0,0,1-.638,1.276c-.081.17-.141.378-.345.465C-997.464-27.348-997.649-27.215-997.817-27.364Z" transform="translate(998.963 36.174)" fill="#fff"/>
  <path id="Path_2219" data-name="Path 2219" d="M-1005.461.593a.562.562,0,0,1-.447.139c-.07-.084-.14-.167-.208-.252-.454-.562-.453-.562,0-1.159.074-.1.141-.2.211-.3a1.252,1.252,0,0,1,.251.439c.006.1-.15.23.063.281a2.193,2.193,0,0,0,.223.307.132.132,0,0,1,0,.1C-1005.7.235-1005.416.447-1005.461.593Z" transform="translate(1006.961 9.935)" fill="#fff"/>
  <path id="Path_2220" data-name="Path 2220" d="M-855.17,116.872c-.149-.08.021-.353-.227-.374-.124-.061-.149-.141-.048-.246.413-.19.575-.617.867-.921.116-.121.19-.289.383-.315.2.049.2.208.21.365A7.849,7.849,0,0,1-855.17,116.872Z" transform="translate(867.223 -97.443)" fill="#fff"/>
  <path id="Path_2221" data-name="Path 2221" d="M-970.305-61.089a1.7,1.7,0,0,1-.2.725,6.867,6.867,0,0,0-.483.637c-.077.092-.125.261-.308.161-.143-.223-.046-.436.026-.65a5.4,5.4,0,0,0,.3-.535A.519.519,0,0,1-970.305-61.089Z" transform="translate(974.48 65.602)" fill="#fff"/>
  <path id="Path_2222" data-name="Path 2222" d="M-981.829-49.064c.033.222-.066.458.065.67a1.511,1.511,0,0,1-.644,1.043c-.143-.04-.2-.222-.368-.221A10.17,10.17,0,0,1-981.829-49.064Z" transform="translate(985.039 54.45)" fill="#fff"/>
  <path id="Path_2223" data-name="Path 2223" d="M-933.482-60.4c-.491.009-.491.009-.359-.422h2.286c-.045.2-.231.188-.373.225A10.2,10.2,0,0,1-933.482-60.4Z" transform="translate(939.809 65.339)" fill="#fff"/>
  <path id="Path_2224" data-name="Path 2224" d="M-777.331-77.494a1.04,1.04,0,0,1-.669.075,9.736,9.736,0,0,1,.654-1.221c.037-.066.078-.135.166-.065.108.086.221.18.131.338A3.456,3.456,0,0,0-777.331-77.494Z" transform="translate(795.473 81.917)" fill="#fff"/>
  <path id="Path_2225" data-name="Path 2225" d="M-928.074-60.443q.9-.181,1.8-.363a.641.641,0,0,0,.131-.059l.23,0c.155.429.155.432-.269.432C-926.815-60.435-927.444-60.44-928.074-60.443Z" transform="translate(934.4 65.377)" fill="#fff"/>
  <path id="Path_2226" data-name="Path 2226" d="M-879.22,153.019c-.076-.039-.08-.111-.1-.185a.8.8,0,0,0-.666-.7l1.422.07A5.844,5.844,0,0,1-879.22,153.019Z" transform="translate(889.882 -131.801)" fill="#fff"/>
  <path id="Path_2227" data-name="Path 2227" d="M-872.424-60.843c-.634.584-.978.585-1.471,0Z" transform="translate(884.246 65.354)" fill="#fff"/>
  <path id="Path_2228" data-name="Path 2228" d="M-907.976,156.309l.286-.4c.172-.27.458-.272.729-.31a.607.607,0,0,1,.25.334A4.008,4.008,0,0,1-907.976,156.309Z" transform="translate(915.795 -135.01)" fill="#fff"/>
  <path id="Path_2229" data-name="Path 2229" d="M-998.817-3.181a.546.546,0,0,1-.2-.44l.089-.147c.171.058.334-.161.507-.013A.552.552,0,0,1-998.817-3.181Z" transform="translate(1000.075 12.579)" fill="#fff"/>
  <path id="Path_2230" data-name="Path 2230" d="M-893.676,155.146c-.176-.015-.19-.154-.218-.284a.208.208,0,0,1,.289-.09.475.475,0,0,1,.229.234Z" transform="translate(902.759 -134.226)" fill="#fff"/>
  <path id="Path_2231" data-name="Path 2231" d="M-838.853,26.377a26.549,26.549,0,0,0-1.232,2.436c-.393.768-.837,1.507-1.275,2.249-.328-.137-.432-.522-.747-.673.154-.52.384-1.013.536-1.536a3.784,3.784,0,0,1,.606-1.244.957.957,0,0,0,.529-.628,1,1,0,0,1,1.127-.718C-839.154,26.286-838.982,26.25-838.853,26.377Z" transform="translate(854.818 -15.274)" fill="#fff"/>
  <path id="Path_2232" data-name="Path 2232" d="M-866.9,106.79c.306-.878.467-1.8.821-2.664a1.218,1.218,0,0,1,.307,1,3.688,3.688,0,0,0-.022.845c.044.136-.071.168-.148.226-.117.072-.031.146,0,.219A2.729,2.729,0,0,1-866.9,106.79Z" transform="translate(877.773 -87.362)" fill="#fff"/>
  <path id="Path_2233" data-name="Path 2233" d="M-899.269,75.322l.315,1.259c-.18.111-.287-.031-.41-.117a2.463,2.463,0,0,1-.305-.812.87.87,0,0,0-.231-.445.384.384,0,0,1-.09-.361c.118-.186,0-.388.039-.579.093-.116.129-.271.252-.366l.292.823a3.749,3.749,0,0,1,1.013.371c-.29,0-.521,0-.751,0C-899.305,75.1-899.391,75.158-899.269,75.322Z" transform="translate(908.415 -59.382)" fill="#fff"/>
  <path id="Path_2234" data-name="Path 2234" d="M-838.623,14.251l-1.029,2.976-.364.3a34.167,34.167,0,0,1,1.036-3.273C-838.862,14.224-838.742,14.144-838.623,14.251Z" transform="translate(852.884 -4.113)" fill="#fff"/>
  <path id="Path_2235" data-name="Path 2235" d="M-919.388,20.289l-.719-2.546-.858.4c-.128-.1-.065-.237-.071-.361.142-.075.283-.153.426-.225.483-.243.488-.255.337-.794a5.283,5.283,0,0,1-.257-1.074.265.265,0,0,1,.314-.088,7.334,7.334,0,0,1,.274.948c.138.436.145.445.545.248a6.374,6.374,0,0,1,.666-.314c.124-.044.246-.122.388-.06a.206.206,0,0,1,.057.262,4,4,0,0,1-.948.554c-.524.289-.529.281-.412.832a3.634,3.634,0,0,0,.386,1.553c.087.08.066.19.081.29C-919.2,20.065-919.192,20.234-919.388,20.289Z" transform="translate(927.894 -5.395)" fill="#fff"/>
  <path id="Path_2236" data-name="Path 2236" d="M-826.212,8.66c.32-.864.753-1.679,1.12-2.522.243-.1.5-.155.748-.235a7.116,7.116,0,0,1,1.745-.118.221.221,0,0,1,.138.181c-.121.177-.273.135-.417.092.148.208.536.247.557.611-.114.033-.183.157-.315.153-.152-.105-.306-.206-.455-.316-.437-.325-.436-.326-.685.173l-.364.727a2.166,2.166,0,0,1-.619-.042c-.232-.064-.779.335-.845.586C-825.737,8.462-825.842,8.584-826.212,8.66Z" transform="translate(840.104 3.698)" fill="#fff"/>
  <path id="Path_2237" data-name="Path 2237" d="M-859.912-40.979l1.262,1.559a.35.35,0,0,1-.309.169,8.065,8.065,0,0,1-1.175-1.493C-860.116-40.875-860.061-40.971-859.912-40.979Z" transform="translate(871.507 46.965)" fill="#fff"/>
  <path id="Path_2238" data-name="Path 2238" d="M-888.7-37.1l-.588.9c-.228-.055-.214-.208-.154-.38l.291-.377A.578.578,0,0,1-888.7-37.1Z" transform="translate(898.677 43.382)" fill="#fff"/>
  <path id="Path_2239" data-name="Path 2239" d="M-807.689-25.617c-.624-.022-1.234.13-1.856.146a3.661,3.661,0,0,1-.606-.6,5.692,5.692,0,0,0,.734-1.391c.153-.271.225-.6.525-.769a1.815,1.815,0,0,0,.972.377.9.9,0,0,1,.364.157c.1.185-.031.333-.092.484-.124.31-.3.6-.438.9a.534.534,0,0,0-.081.388C-808.039-25.774-807.687-25.965-807.689-25.617Z" transform="translate(825.235 35.169)" fill="#fff"/>
  <path id="Path_2240" data-name="Path 2240" d="M-918.886,112.951c.695.929,1.47,1.79,2.218,2.675a.672.672,0,0,1,.076.163c-.176.009-.365-.094-.526.055q-.963-1.174-1.925-2.35a.841.841,0,0,1-.082-.161C-918.876,113.312-918.9,113.123-918.886,112.951Z" transform="translate(926.116 -95.532)" fill="#fff"/>
  <path id="Path_2241" data-name="Path 2241" d="M-915.6,86.477l-1.413.294a.281.281,0,0,0,0-.356,4.576,4.576,0,0,1,1.34-.29A.506.506,0,0,0-915.6,86.477Z" transform="translate(924.161 -70.698)" fill="#fff"/>
  <path id="Path_2242" data-name="Path 2242" d="M-803.1-44.074a3.993,3.993,0,0,1-.531.963c-.138.077-.28.182-.359-.066l.586-.979C-803.33-44.036-803.209-44.082-803.1-44.074Z" transform="translate(819.535 49.906)" fill="#fff"/>
  <path id="Path_2243" data-name="Path 2243" d="M-890.22,110.782l-.67-2.83c.144,0,.22.169.373.15.169.9.418,1.789.645,2.679C-889.988,110.668-890.1,110.762-890.22,110.782Z" transform="translate(899.978 -90.904)" fill="#fff"/>
  <path id="Path_2244" data-name="Path 2244" d="M-785.95,3.863l2.153.014a.486.486,0,0,0,.076.353l-1.491.012-.073-.145c-.065-.153-.2-.149-.334-.153C-785.734,3.94-785.865,3.99-785.95,3.863Z" transform="translate(802.833 5.454)" fill="#fff"/>
  <path id="Path_2245" data-name="Path 2245" d="M-953.22-42.638l-.986-1.333c.25,0,.394.237.622.288a6.794,6.794,0,0,1,.729.972A.237.237,0,0,1-953.22-42.638Z" transform="translate(958.592 49.735)" fill="#fff"/>
  <path id="Path_2246" data-name="Path 2246" d="M-991.922,8.058c1.04-.08,2.082-.057,3.123-.058a.255.255,0,0,1-.151.357l-3.04.071a.3.3,0,0,1,0-.048c.057-.111.2-.077.275-.157C-991.747,8.125-991.889,8.16-991.922,8.058Z" transform="translate(993.569 1.626)" fill="#fff"/>
  <path id="Path_2247" data-name="Path 2247" d="M-994.791,8.808c.133.074.407-.061.407.114,0,.278-.3.163-.47.208-.221,0-.249-.135-.23-.308Z" transform="translate(996.439 0.876)" fill="#fff"/>
  <path id="Path_2248" data-name="Path 2248" d="M-844.857-19.818a.416.416,0,0,1,.309-.169l.982,1.363c.087.121.174.246.356.172a.593.593,0,0,1,.171.716l-.105.343c-.119-.035-.238.141-.358,0,.124-.284.038-.386-.273-.355-.351.035-.706.035-1.059.049a.31.31,0,0,1,0-.376,2.078,2.078,0,0,1,.735-.212c.209-.043.266-.1.113-.3C-844.3-18.987-844.57-19.407-844.857-19.818Z" transform="translate(857.404 27.532)" fill="#fff"/>
  <path id="Path_2249" data-name="Path 2249" d="M-881.926,5.769c-.02.126.084.25,0,.376-.759.317-1.462.744-2.186,1.129a3.752,3.752,0,0,1-.776.328l-.08-.242c.013-.161.142-.22.258-.288.548-.322,1.117-.606,1.74-.916-.01,0-.088-.034-.056,0,.073.085-.3.1-.543.016-.089-.186,0-.3.159-.379Z" transform="translate(894.491 3.689)" fill="#fff"/>
  <path id="Path_2250" data-name="Path 2250" d="M-902.491,50.648c-.128,0-.261-.01-.283-.165-.06-.419-.11-.839-.157-1.259,0-.04.035-.086.054-.129A10.421,10.421,0,0,1-902.491,50.648Z" transform="translate(911.126 -36.419)" fill="#fff"/>
  <path id="Path_2251" data-name="Path 2251" d="M-821.969-11.319c-.11-.226-.045-.494-.171-.716a7.451,7.451,0,0,1,.6-1.017c.169-.019.242.059.226.226a1.161,1.161,0,0,1-.245.482c-.154.235-.128.344.173.325a.733.733,0,0,1,.144.019c.348.041.451.332.594.583a.83.83,0,0,1-.678.139C-821.531-11.406-821.752-11.326-821.969-11.319Z" transform="translate(836.335 21.115)" fill="#fff"/>
  <path id="Path_2252" data-name="Path 2252" d="M-919.746-16.708c.257-.085-.019-.159,0-.239-.056-.171-.288-.342,0-.515l.354.421a12.947,12.947,0,0,1,1.116-1.551.243.243,0,0,1,.334.089c-.332.529-.728,1.01-1.1,1.509-.063.084-.29.237.04.283.059.137-.048.24-.07.36-.034.1.025.224-.088.3a.463.463,0,0,1-.293.075c-.112-.114-.031-.374-.286-.38A.236.236,0,0,1-919.746-16.708Z" transform="translate(926.827 26.272)" fill="#fff"/>
  <path id="Path_2253" data-name="Path 2253" d="M-948.6,7.009q0,.175,0,.351c-.82.02-1.637.118-2.459.069l.151-.357A18.5,18.5,0,0,1-948.6,7.009Z" transform="translate(955.679 2.554)" fill="#fff"/>
  <path id="Path_2254" data-name="Path 2254" d="M-939.23-25.22c-.155.173.067.343,0,.515a7.951,7.951,0,0,1-1.155-1.5c-.164-.263-.413-.449-.55-.723l.365-.073Z" transform="translate(946.303 34.029)" fill="#fff"/>
  <path id="Path_2255" data-name="Path 2255" d="M-897.894-29.006l-.334-.089.687-.875c.035.133.033.282.154.38A3.066,3.066,0,0,1-897.894-29.006Z" transform="translate(906.771 36.775)" fill="#fff"/>
  <path id="Path_2256" data-name="Path 2256" d="M-906.726,6.383c-1.089.046-2.179.09-3.269.075l.146-.353c1.09-.027,2.179-.111,3.27-.074A.906.906,0,0,0-906.726,6.383Z" transform="translate(917.664 3.455)" fill="#fff"/>
  <path id="Path_2257" data-name="Path 2257" d="M-813.788-29.41a.491.491,0,0,0-.226-.226,9.387,9.387,0,0,1,.744-1.333c.1.117.237.058.359.066C-813.147-30.373-813.563-29.948-813.788-29.41Z" transform="translate(828.812 37.699)" fill="#fff"/>
</svg>
