<svg xmlns="http://www.w3.org/2000/svg" width="145.052" height="152.861" viewBox="0 0 145.052 152.861">
  <g id="Group_3125" data-name="Group 3125" transform="translate(0)">
    <path id="Path_2199" data-name="Path 2199" d="M-843.384,76.224a15.106,15.106,0,0,1-6.807,1.908c-3.784.2-5.99,2.438-8.1,5.059q-2.159,2.683-4.3,5.376a11.331,11.331,0,0,1-1.729-2.622c.427-2.645,2.392-4.287,4.095-6.129-2.12-.578-2.169-.612-3.339,1.042-2.4,3.391-3.827,7.334-6.08,10.806-.441.68-.525,2.3-2.1,1.311a6.383,6.383,0,0,1-.341-3.777,13.83,13.83,0,0,0-1.647-8.846c.276-3.846.294-3.92-3.668-4.862-4.539-1.079-9.131-1.678-13.789-.7-1.519-1.261-.544-1.871.663-2.274,1.419-.475,2.852.1,4.28.161.345,0-.019-.493.082-.163.027.086-.058.143-.236.1-2-.488-4.26-.25-5.79-2.06,1.839-1.436,3.988-.866,5.959-.694a55.31,55.31,0,0,1,11.174,1.878c3.071.924,3.069.69,4.354-2.16,1.877-4.16,2.759-8.689,4.894-12.74,1.072-.693,1.674-2.239,3.343-1.861.7,1.935-.157,3.7-.627,5.5-.691,2.644-2.038,5.089-2.382,7.831,1.445,1.847,3.258,3.371,4.612,5.293.148.8-.061,1.8,1.232,1.887,1.619.113,3.038-.107,4.111-1.545,3.134-4.2,6.67-8.072,9.939-12.164.937-1.172,1.625-2.689,3.3-3.111a2.664,2.664,0,0,1,2.755,1.767c-.774,2.843-2.748,4.916-4.81,6.784a25.4,25.4,0,0,0-5.67,7.364c1.781.016,3.3-1.24,5.038-.659A9.865,9.865,0,0,1-843.384,76.224Z" transform="translate(954.855 36.439)" fill="#651a34"/>
    <path id="Path_2200" data-name="Path 2200" d="M-976.883,67.112c-2.442-3.53-6.3-5.809-8.477-9.57-.582-1-1.339-.827-2.208-.449-1.732.753-3.508,1.411-5.225,2.193a30.272,30.272,0,0,1-14.756,2.738c-3.773-.245-5.3-1.757-5.65-5.652-.365-4.1,1.267-7.746,2.224-11.553a2,2,0,0,1,2.372-.257c1.071,1.186.188,2.3-.244,3.335a16.543,16.543,0,0,0-1.514,7.247c.155,3.364,1.721,4.813,5.126,4.385a29.89,29.89,0,0,0,8.17-2.288c2.052-.889,4.149-1.67,6.221-2.509,1.3-.524,1.509-1.226.586-2.327-1.547-1.846-3.33-3.483-4.81-5.385-.659-.848-1.589-1.661-.845-2.934a4.665,4.665,0,0,1,3.167-.365c3.1,1.274,4.53,4.322,6.731,6.534,1.254,1.259,2.074,1.61,3.671.841,4.7-2.265,9.812-3.591,14.352-6.244.78-.456,1.63-1.026,2.644-.526a4.191,4.191,0,0,1,.632,2.57c-.317,1.288-1.443,1.693-2.475,2-4.3,1.3-8.134,3.647-12.282,5.283-2.686,1.06-2.719,1.393-.915,3.54a34.343,34.343,0,0,0,4.462,4.608c1.153.944,2.391,2.022,2.218,3.821A6.158,6.158,0,0,1-976.883,67.112Z" transform="translate(1013.252 41.891)" fill="#701f4e"/>
    <path id="Path_2201" data-name="Path 2201" d="M-793.475,39.854a3.259,3.259,0,0,0-2.636-1.586c-.3-2.156,1.556-3.106,2.584-4.481,2.972-3.975,5.932-7.964,9.095-11.793.812-.982.618-1.806-.218-2.714-.9-.972-2.275-1.658-2.231-3.284a3.173,3.173,0,0,1,2.157-1.355,3.465,3.465,0,0,1,2.771,1.592c1.068,1.507,1.868.958,2.739-.172a28.052,28.052,0,0,0,1.606-2.6c.525-.856,1-1.837,2.281-1.694.648.775,1.4,1.455,2.072,2.209-1.182,1.573-2.264,3.236-3.572,4.7-1.5,1.678-1.422,3.287-.39,5.115a22.9,22.9,0,0,1,2.937,8.7c.562,4.867-1.482,8.818-4.077,12.626-.831-.487-1-1.388-1.358-2.17a2.705,2.705,0,0,1,.4-1.722c2.52-4.67,1.966-9.464.465-14.241-.779-2.482-1.559-2.618-3.1-.543-2.912,3.924-6.285,7.481-9.054,11.519C-791.585,38.808-792.037,40.034-793.475,39.854Z" transform="translate(908.523 57.258)" fill="#551a48"/>
    <path id="Path_2202" data-name="Path 2202" d="M-927.142-60.879l13.008.026a10.661,10.661,0,0,1,1.97,1.135,4.1,4.1,0,0,0,5.558.161,16.918,16.918,0,0,1,2.727-1.31l6.276,0c-.3,1.827.556,2.3,2.283,2.267,4.511-.081,9.026-.064,13.544-.016,3.064-.169,6.127-.135,9.185-.013.9.036,2.313-.267,2.163,1.48-1.23.843-2.642.616-4,.62q-15.205.031-30.414.011c-.687,0-1.375-.021-2.061.026-1.141.078-1.3.634-.72,1.525.788,1.221,1.879,2.248,2.36,3.667.158,1.164-.747,1.656-1.446,2.279-1.716.208-1.957-1.408-2.733-2.3-1.9-2.184-2.489-2.2-4.35.071-.96,1.174-1.507,2.754-3.147,3.283-1.084-.164-2.164,1.432-3.252.012-.011-2,1.373-3.255,2.5-4.643.9-1.114,2.055-2.048,2.7-3.931-13.967,0-27.666-.006-41.361.013-.557-.066-1.057-.312-.938-.936.152-.81.907-.95,1.586-1.025,2.36-.263,4.743.048,7.134-.187.28-.984-1.137-1.3-.813-2.233l4.71.033c.264,1.73,1.123,2.68,3.007,2.287,3.863.035,7.726-.162,11.582-.012C-928.285-58.512-927.361-59.131-927.142-60.879Z" transform="translate(986.268 92.302)" fill="#295872"/>
    <path id="Path_2203" data-name="Path 2203" d="M-767.572-46.8c-2.876,3.3-6.75,5.409-9.96,8.327-1.21,1.1-1.2,1.779-.426,2.9a13.288,13.288,0,0,1,2.028,3.809,3.3,3.3,0,0,1-2.409.794c-2.262-.688-2.39-3.2-4.055-4.352-.431.585-.822,1.611-2.024,1.712a58.4,58.4,0,0,1-7.072-1.965c-.953-.366-1.948-.65-2.282-1.793.127-1.967.56-3.8,2.3-5.023,2.272-.506,4.432-1.388,6.658-2.049a6.277,6.277,0,0,1,5.244.392c1.041.914.125,1.91.1,3.059,3.177-2.3,5.582-5.527,9.444-6.618C-769.17-47.449-768.235-47.534-767.572-46.8Z" transform="translate(907.379 85.892)" fill="#445688"/>
    <path id="Path_2204" data-name="Path 2204" d="M-951.648,88.034c.657-1.4,1.917-.98,3.029-1.009.176,0,.417-.01.489.109,1.928,3.2,4.526,2.619,7.323,1.4a3.286,3.286,0,0,1,2.766-.158,1.829,1.829,0,0,1,.256,2.81,7.194,7.194,0,0,1-2.494,1.277c-2.385,1.013-2.418,1.184-.559,3.124,1.478,1.542,3.142,2.949,3.717,5.148.1,1.323-.22,2.384-1.692,2.726-1.275.031-2.012-.83-2.7-1.706q-1.431-1.814-2.89-3.6c-2.059-2.525-3.267-2.68-5.742-.507a31.8,31.8,0,0,0-7.723,9.5c-.375.749-.575,1.647-1.531,1.946a1.284,1.284,0,0,1-1.535-.864c1.126-6.54,5.5-10.677,10.693-14.076,1.932-1.265,2.3-2.116.406-3.654A11.957,11.957,0,0,1-951.648,88.034Z" transform="translate(988.017 20.968)" fill="#9b2c4a"/>
    <path id="Path_2205" data-name="Path 2205" d="M-777.187-50.809c-3.619-1.322-6.791.449-10.043,1.517-.745.244-1.333.821-1.97-.072-.472-2.053.653-3.5,1.87-4.9,3.721-.78,3.714-.779,3.245-4.587a5.078,5.078,0,0,0-.25-1.224l.879-1.629a6.936,6.936,0,0,1,4.665-.52c.135.958.257,1.929,1.644,1.594,1.966-.644,2.293,1.263,3.3,2.116A8.3,8.3,0,0,1-777.187-50.809Z" transform="translate(905.227 93.053)" fill="#3e7aa8"/>
    <path id="Path_2206" data-name="Path 2206" d="M-961.6,128.011l1.548.52a1.865,1.865,0,0,1,.429,1.431c.047,5.318,2.789,9.18,7.746,11.293,5.712,2.435,11.524,3.963,17.783,2.753a2.613,2.613,0,0,1,1.756.251c1.035,2.015-1.135,2.056-1.847,3a26.661,26.661,0,0,1-13.916-.995,47.615,47.615,0,0,1-9.262-4.492C-961.735,139.173-963.4,131.708-961.6,128.011Z" transform="translate(988.683 1.18)" fill="#8e3f24"/>
    <path id="Path_2207" data-name="Path 2207" d="M-762.683-68.038c-1.646.243-1.593-2.119-3.129-2.046,2.528-2.69,3.859-6.1,5.565-9.279.148-2.283,1.806-2.545,3.568-2.671a1.566,1.566,0,0,0,1.541,1.931c4.307.616,5.869,4,6.239,7.418a9.1,9.1,0,0,1-5.187,9.278c-.841-.065-1.739.261-2.5-.365.6-2.186,2.634-3.293,3.81-5.065,2.225-3.354.778-7.153-3.139-8.1a1.876,1.876,0,0,0-2.6,1.267c-.7,1.75-1.338,3.531-2.151,5.23C-761.113-69.5-761.289-68.227-762.683-68.038Z" transform="translate(893.892 102.501)" fill="#226e8c"/>
    <path id="Path_2208" data-name="Path 2208" d="M-756.787-97.318c-1.232.832-2.879,1.112-3.568,2.671a19.472,19.472,0,0,1-5.681-3.645c.176-1.192,1.149-1.269,2.041-1.461,6.04,4.122,4.772,2.926,6.71-2.2a24.461,24.461,0,0,0,.883-3.493,1.228,1.228,0,0,0-.448-1.387c-.562-.352-.928.159-1.334.435-1.96,1.336-2.92,3.521-4.333,5.317-1.566-1.041-.933-2.363-.3-3.22,2.031-2.76,3.777-5.757,6.32-8.117.757-.7,1.619-1.62,2.674-1.194,1.12.451.95,1.735.9,2.751C-753.156-106.05-755.057-101.707-756.787-97.318Z" transform="translate(894 117.786)" fill="#19a2b6"/>
    <path id="Path_2209" data-name="Path 2209" d="M-796.155-59.42c1.427,1.316,1.179,3.228,1.681,4.866.249.815-.483,1.2-1.22,1.236-1.091.053-2.189.016-3.282.017-.458-.4-.884-.8-1.395-.02a4.349,4.349,0,0,1-2.433,2.053,1.717,1.717,0,0,1-2.013-.7c.083-2.41,1.56-3.986,3.255-5.431a6.439,6.439,0,0,0-1.717-.531c-3.19-.058-6.381-.037-9.572-.044-.814-.879-1.41-1.8-.522-2.976,4.174-.025,8.354.073,12.521-.123,2.526-.119,1.915,2.545,3.6,3.289C-796.541-57.926-796.638-58.911-796.155-59.42Z" transform="translate(917.047 92.393)" fill="#3f9ccc"/>
    <path id="Path_2210" data-name="Path 2210" d="M-1006.427,33.2h-2.429a41.269,41.269,0,0,1,4.179-8.758c.64-1.065,2.032-2.064.88-3.611.841-.895,2.018-.989,3.105-1.3,1.409.119,1.939,1.354,2.691,2.233,2.4,2.814,4.64,5.768,7,8.618a2.408,2.408,0,0,1,.8,2.327l-3.779.047c-1.426.141-1.862-1.05-2.474-1.921a42.627,42.627,0,0,0-3.571-4.729c-.875-.938-1.534-.886-2.2.233a32.25,32.25,0,0,0-2.121,4.121C-1004.794,31.529-1005.019,32.837-1006.427,33.2Z" transform="translate(1011.131 53.507)" fill="#86317e"/>
    <path id="Path_2211" data-name="Path 2211" d="M-866.32,137.308q-2.553,3.383-5.109,6.766c-1.532,1.118-3.263.841-4.924.554a28.724,28.724,0,0,0-4.557-.406,2.558,2.558,0,0,1-1.255-.363,3.818,3.818,0,0,1-.375-3.533,1.925,1.925,0,0,1,2.841-.251c1.365,1.557,2.41.674,3.342-.5.632-.793.749-1.933,1.655-2.564,2.2-1.306,4.758-1.653,7.1-2.6C-865.86,134.8-866.238,136.119-866.32,137.308Z" transform="translate(950.321 -1.912)" fill="#c15333"/>
    <path id="Path_2212" data-name="Path 2212" d="M-764.338-16.363c.64-.963,1.637-.542,2.5-.642,2.73,3.53,4.5,7.7,7.364,11.137a1.232,1.232,0,0,1-.115,1.812c-1.163,1.37-2.29,2.77-3.431,4.158-1.553.128-2.158-.709-2.177-2.141a12.81,12.81,0,0,0-.621-1.754,2.549,2.549,0,0,1-.089-2.351c.762-.946.275-1.786-.255-2.59a44.734,44.734,0,0,1-2.755-5.242C-764.282-14.723-764.9-15.445-764.338-16.363Z" transform="translate(893.29 71.136)" fill="#683d82"/>
    <path id="Path_2213" data-name="Path 2213" d="M-887,150.753l.991.183c3.867.49,5.22,2.064,5.32,6.2-1.259,1.442-1.311,3.47-2.35,4.99l-6.561-8.038a4.8,4.8,0,0,1-2.079-1.514c-.506-.624-1.037-1.241-.676-2.139,1.029-1.063,2.288-.782,3.53-.611A3.332,3.332,0,0,1-887,150.753Z" transform="translate(954.99 -9.26)" fill="#e2cf8c"/>
    <path id="Path_2214" data-name="Path 2214" d="M-781.867,71.9c1.428.18.945,1.384,1.181,2.2-5.748,4.308-11.647,8.341-18.694,10.29a1.586,1.586,0,0,1-1.566-2.012,1.385,1.385,0,0,1,.858-.9c4.729-1.63,8.812-4.56,13.336-6.593a9.742,9.742,0,0,0,2.506-1.754C-783.568,72.53-783,71.659-781.867,71.9Z" transform="translate(910.851 28.265)" fill="#8c254e"/>
    <path id="Path_2215" data-name="Path 2215" d="M-772.946-103.542l-2.041,1.46a18.377,18.377,0,0,1-6.64-8.63c-1.213-2.909-1.852-6.053-2.826-9.067-.306-.952-.139-1.333.831-1.671,1.169-.409,1.266.247,1.5,1.052.8,2.71,1.58,5.428,2.5,8.1A18.793,18.793,0,0,0-772.946-103.542Z" transform="translate(902.95 121.575)" fill="#32bdd1"/>
    <path id="Path_2216" data-name="Path 2216" d="M-828.3-60.835q.261,1.488.524,2.976c-4.729.008-9.457.041-14.185,0-.9-.007-2.129.455-2.639-.452-.666-1.184.919-1.634,1.292-2.528Z" transform="translate(931.978 92.276)" fill="#3583a9"/>
    <path id="Path_2217" data-name="Path 2217" d="M-950.937-60.89c.95.841,2.141,1.435,2.921,3.031-3.061,0-5.924-.039-8.785.033-.572.014-1.941-.648-1.455,1.033,2.353,1.788,4.846,3.463,5.366,6.716-1.862.536-2.9-1.292-4.474-1.567-1.6-.981-3.035-2.088-3.163-4.183.647-1.658.425-3.631,1.8-5.027Z" transform="translate(987.818 92.302)" fill="#37758b"/>
    <path id="Path_2218" data-name="Path 2218" d="M-997.817-15.673a98.321,98.321,0,0,1,5.939-9.847,28.652,28.652,0,0,0,1.848-3.625c1.573-.635,2.1.564,2.749,1.563-.878,3.259-3.023,5.895-4.445,8.893-.561,1.187-.979,2.632-2.407,3.241C-995.357-15.566-996.648-14.637-997.817-15.673Z" transform="translate(1005.807 77.074)" fill="#8d82ba"/>
    <path id="Path_2219" data-name="Path 2219" d="M-999.52,9.969a3.915,3.915,0,0,1-3.119.97c-.485-.585-.973-1.166-1.45-1.757-3.161-3.92-3.157-3.918.009-8.077.515-.676.983-1.387,1.473-2.082a8.734,8.734,0,0,1,1.747,3.058c.045.677-1.045,1.6.44,1.96a15.283,15.283,0,0,0,1.557,2.142.921.921,0,0,1-.028.674C-1001.188,7.473-999.205,8.954-999.52,9.969Z" transform="translate(1009.974 63.401)" fill="#a56aaa"/>
    <path id="Path_2220" data-name="Path 2220" d="M-853.158,127.948c-1.038-.56.146-2.463-1.579-2.607-.863-.424-1.039-.98-.333-1.711,2.879-1.323,4-4.3,6.039-6.42.808-.842,1.324-2.014,2.669-2.194,1.37.34,1.4,1.451,1.467,2.543C-846.858,121.652-850.352,124.526-853.158,127.948Z" transform="translate(937.159 7.448)" fill="#792f2a"/>
    <path id="Path_2221" data-name="Path 2221" d="M-963.953-60.96c-.4,1.7-.237,3.558-1.387,5.054-1.36,1.3-2.183,3.01-3.369,4.44-.535.644-.871,1.822-2.146,1.124-1-1.554-.323-3.039.178-4.532a37.6,37.6,0,0,0,2.1-3.728A3.617,3.617,0,0,1-963.953-60.96Z" transform="translate(993.048 92.408)" fill="#3f8bab"/>
    <path id="Path_2222" data-name="Path 2222" d="M-976.18-49.064c.232,1.549-.463,3.19.455,4.673a10.53,10.53,0,0,1-4.488,7.267c-1-.28-1.394-1.55-2.561-1.544C-980.67-42.193-978.888-45.921-976.18-49.064Z" transform="translate(998.55 86.597)" fill="#426b9c"/>
    <path id="Path_2223" data-name="Path 2223" d="M-930.892-57.886c-3.424.062-3.424.062-2.5-2.941l15.933,0c-.315,1.428-1.609,1.311-2.6,1.568C-923.606-58.335-927.269-58.252-930.892-57.886Z" transform="translate(974.982 92.271)" fill="#30a8c6"/>
    <path id="Path_2224" data-name="Path 2224" d="M-773.336-70.086a7.249,7.249,0,0,1-4.664.52c1.146-3.036,3.005-5.69,4.555-8.51.255-.462.543-.944,1.157-.454.756.6,1.537,1.258.912,2.354A24.093,24.093,0,0,0-773.336-70.086Z" transform="translate(899.771 100.91)" fill="#21a6cf"/>
    <path id="Path_2225" data-name="Path 2225" d="M-928.073-57.906q6.264-1.259,12.524-2.528a4.448,4.448,0,0,0,.91-.412l1.6-.023c1.078,2.988,1.078,3.011-1.872,3.013C-919.3-57.853-923.686-57.887-928.073-57.906Z" transform="translate(972.164 92.291)" fill="#36799e"/>
    <path id="Path_2226" data-name="Path 2226" d="M-874.662,158.326c-.529-.272-.558-.776-.684-1.287-.616-2.5-1.788-4.505-4.638-4.908l9.91.487A40.774,40.774,0,0,1-874.662,158.326Z" transform="translate(948.966 -10.455)" fill="#d3b37b"/>
    <path id="Path_2227" data-name="Path 2227" d="M-863.641-60.843c-4.416,4.073-6.817,4.076-10.255.013Z" transform="translate(946.029 92.279)" fill="#197893"/>
    <path id="Path_2228" data-name="Path 2228" d="M-907.976,160.562q.994-1.4,1.99-2.8c1.2-1.882,3.19-1.9,5.077-2.16a4.234,4.234,0,0,1,1.741,2.327A27.93,27.93,0,0,1-907.976,160.562Z" transform="translate(962.469 -12.127)" fill="#b15928"/>
    <path id="Path_2229" data-name="Path 2229" d="M-997.62.713a3.808,3.808,0,0,1-1.4-3.069q.311-.511.621-1.022c1.19.4,2.33-1.123,3.536-.091A3.85,3.85,0,0,1-997.62.713Z" transform="translate(1006.385 64.779)" fill="#cfa2c8"/>
    <path id="Path_2230" data-name="Path 2230" d="M-892.375,157.515c-1.228-.1-1.326-1.077-1.519-1.977a1.446,1.446,0,0,1,2.014-.625,3.309,3.309,0,0,1,1.6,1.629Z" transform="translate(955.676 -11.718)" fill="#ea974b"/>
    <path id="Path_2231" data-name="Path 2231" d="M-819.435,27.116c-3.47,5.349-5.693,11.33-8.582,16.974-2.743,5.354-5.834,10.5-8.885,15.675-2.285-.951-3.008-3.638-5.2-4.687,1.07-3.626,2.677-7.06,3.733-10.7a26.358,26.358,0,0,1,4.224-8.67,6.668,6.668,0,0,0,3.683-4.376,6.986,6.986,0,0,1,7.851-5C-821.537,26.477-820.337,26.227-819.435,27.116Z" transform="translate(930.694 50.265)" fill="#5f1845"/>
    <path id="Path_2232" data-name="Path 2232" d="M-866.9,122.692c2.13-6.12,3.258-12.549,5.722-18.566,1.314,2.13,2.882,4.056,2.142,6.968-.472,1.857-.127,3.921-.15,5.892.306.95-.5,1.173-1.031,1.573-.813.5-.216,1.018-.013,1.529C-862.152,121.737-864.655,121.889-866.9,122.692Z" transform="translate(942.656 12.701)" fill="#9d3541"/>
    <path id="Path_2233" data-name="Path 2233" d="M-894.881,83.8q1.095,4.386,2.193,8.771c-1.254.772-2-.213-2.861-.816-1.211-1.694-1.586-3.711-2.127-5.656a6.069,6.069,0,0,0-1.608-3.1,2.678,2.678,0,0,1-.63-2.513c.82-1.293-.031-2.705.274-4.038.649-.805.9-1.888,1.757-2.549q1.017,2.867,2.034,5.735c2.254.72,4.658,1.041,7.058,2.585-2.019,0-3.629-.031-5.237.011C-895.134,82.261-895.735,82.661-894.881,83.8Z" transform="translate(958.623 27.281)" fill="#a02b51"/>
    <path id="Path_2234" data-name="Path 2234" d="M-830.3,14.576l-7.173,20.738-2.54,2.077c2.31-7.634,4.146-15.418,7.22-22.81C-831.967,14.383-831.136,13.828-830.3,14.576Z" transform="translate(929.686 56.081)" fill="#732767"/>
    <path id="Path_2235" data-name="Path 2235" d="M-909.493,48.388c-1.655-5.865-3.311-11.731-5.007-17.742l-5.977,2.781c-.893-.7-.456-1.653-.5-2.516.99-.523,1.97-1.063,2.969-1.566,3.365-1.694,3.4-1.776,2.347-5.533a36.8,36.8,0,0,1-1.79-7.484,1.849,1.849,0,0,1,2.189-.612c.987,2.1,1.217,4.419,1.909,6.609.96,3.039,1.011,3.1,3.8,1.729a44.441,44.441,0,0,1,4.638-2.187c.866-.309,1.713-.852,2.7-.418a1.433,1.433,0,0,1,.4,1.828c-1.879,1.836-4.374,2.63-6.607,3.859-3.654,2.012-3.685,1.957-2.869,5.8.593,3.683.489,7.539,2.69,10.822.6.556.462,1.321.565,2.018C-908.186,46.828-908.127,48.005-909.493,48.388Z" transform="translate(968.774 55.413)" fill="#983889"/>
    <path id="Path_2236" data-name="Path 2236" d="M-826.212,25.975c2.233-6.023,5.25-11.7,7.806-17.577,1.7-.672,3.474-1.08,5.21-1.638,4.044-.432,8.05-1.393,12.16-.825a1.539,1.539,0,0,1,.963,1.259c-.841,1.234-1.9.939-2.907.642,1.035,1.453,3.738,1.723,3.883,4.262-.792.233-1.273,1.1-2.191,1.067-1.057-.733-2.135-1.437-3.168-2.2-3.048-2.265-3.039-2.274-4.774,1.2q-1.264,2.535-2.537,5.067a15.091,15.091,0,0,1-4.315-.292c-1.619-.448-5.431,2.331-5.89,4.085C-822.905,24.6-823.632,25.444-826.212,25.975Z" transform="translate(923.028 60.151)" fill="#702e70"/>
    <path id="Path_2237" data-name="Path 2237" d="M-858.588-40.979l8.8,10.866a2.44,2.44,0,0,1-2.152,1.18,56.233,56.233,0,0,1-8.188-10.406C-860.011-40.254-859.626-40.925-858.588-40.979Z" transform="translate(939.391 82.697)" fill="#465785"/>
    <path id="Path_2238" data-name="Path 2238" d="M-884.047-37.053q-2.05,3.142-4.1,6.285c-1.587-.383-1.492-1.448-1.074-2.646l2.026-2.628A4.025,4.025,0,0,1-884.047-37.053Z" transform="translate(953.549 80.83)" fill="#5770a5"/>
    <path id="Path_2239" data-name="Path 2239" d="M-793-9.987c-4.349-.153-8.6.9-12.931,1.019a25.475,25.475,0,0,1-4.221-4.212c2.691-2.712,3.319-6.512,5.113-9.7,1.066-1.89,1.57-4.164,3.656-5.36,1.853,1.9,4.419,2.055,6.772,2.627a6.29,6.29,0,0,1,2.539,1.1c.695,1.291-.219,2.322-.641,3.374-.865,2.161-2.073,4.167-3.049,6.28a3.719,3.719,0,0,0-.562,2.7C-795.44-11.078-792.983-12.409-793-9.987Z" transform="translate(915.279 76.55)" fill="#50376d"/>
    <path id="Path_2240" data-name="Path 2240" d="M-917.457,112.951c4.843,6.471,10.247,12.477,15.459,18.644a4.7,4.7,0,0,1,.526,1.138c-1.228.064-2.541-.653-3.667.385q-6.713-8.184-13.415-16.374a5.881,5.881,0,0,1-.571-1.121C-917.386,115.469-917.522,114.148-917.457,112.951Z" transform="translate(967.847 8.444)" fill="#6c2924"/>
    <path id="Path_2241" data-name="Path 2241" d="M-907.163,88.579l-9.85,2.05A1.957,1.957,0,0,0-917,88.146c2.949-1.427,6.185-1.532,9.338-2.021A3.526,3.526,0,0,0-907.163,88.579Z" transform="translate(966.828 21.385)" fill="#782140"/>
    <path id="Path_2242" data-name="Path 2242" d="M-797.791-43.582c-.7,2.531-2.383,4.519-3.7,6.708-.959.537-1.954,1.268-2.5-.457q2.042-3.413,4.083-6.826C-799.379-43.316-798.532-43.642-797.791-43.582Z" transform="translate(912.309 84.23)" fill="#4a6da1"/>
    <path id="Path_2243" data-name="Path 2243" d="M-886.223,127.671q-2.332-9.86-4.667-19.719c1.007,0,1.536,1.181,2.6,1.046,1.175,6.3,2.911,12.469,4.5,18.671C-884.605,126.877-885.413,127.538-886.223,127.671Z" transform="translate(954.227 10.856)" fill="#7f2f2d"/>
    <path id="Path_2244" data-name="Path 2244" d="M-785.95,3.863l15,.1a3.388,3.388,0,0,0,.526,2.458l-10.39.085q-.256-.5-.511-1.008c-.452-1.063-1.378-1.037-2.324-1.068C-784.442,4.4-785.357,4.747-785.95,3.863Z" transform="translate(903.606 61.066)" fill="#4a2555"/>
    <path id="Path_2245" data-name="Path 2245" d="M-947.334-34.68l-6.872-9.291c1.743.025,2.746,1.65,4.333,2.009a47.349,47.349,0,0,1,5.081,6.772A1.649,1.649,0,0,1-947.334-34.68Z" transform="translate(984.769 84.14)" fill="#6086b1"/>
    <path id="Path_2246" data-name="Path 2246" d="M-991.514,8.417c7.246-.56,14.506-.394,21.762-.4A1.778,1.778,0,0,1-970.8,10.5L-991.99,11a2.106,2.106,0,0,1,.032-.334c.4-.774,1.371-.539,1.92-1.093C-990.3,8.881-991.287,9.129-991.514,8.417Z" transform="translate(1002.996 59.071)" fill="#854790"/>
    <path id="Path_2247" data-name="Path 2247" d="M-993.01,8.808c.925.513,2.839-.424,2.835.794-.006,1.941-2.068,1.135-3.279,1.45-1.541.034-1.732-.937-1.6-2.15Z" transform="translate(1004.491 58.681)" fill="#cb94c2"/>
    <path id="Path_2248" data-name="Path 2248" d="M-844.6-18.807a2.9,2.9,0,0,1,2.153-1.18q3.422,4.749,6.844,9.5c.608.842,1.211,1.716,2.481,1.2,1.813,1.325,1.7,3.111,1.193,4.99q-.367,1.2-.732,2.391c-.832-.244-1.661.981-2.493.005.864-1.979.268-2.689-1.9-2.471-2.448.246-4.92.241-7.382.345a2.161,2.161,0,0,1-.033-2.621c1.562-.994,3.379-1.119,5.121-1.478,1.456-.3,1.855-.713.785-2.112C-840.686-13.016-842.6-15.944-844.6-18.807Z" transform="translate(932.043 72.571)" fill="#805394"/>
    <path id="Path_2249" data-name="Path 2249" d="M-863.8,5.769c-.138.876.588,1.74.033,2.621-5.291,2.21-10.188,5.186-15.234,7.866a26.144,26.144,0,0,1-5.411,2.285l-.555-1.685c.091-1.121.992-1.532,1.8-2,3.822-2.244,7.785-4.223,12.124-6.382-.068.028-.613-.236-.388.026.505.59-2.125.667-3.785.11-.622-1.3,0-2.072,1.106-2.641Z" transform="translate(951.368 60.147)" fill="#a360a5"/>
    <path id="Path_2250" data-name="Path 2250" d="M-899.862,59.917c-.889.008-1.818-.068-1.974-1.151-.419-2.917-.764-5.844-1.093-8.773-.032-.282.243-.6.377-.9C-901.6,52.687-900.264,56.187-899.862,59.917Z" transform="translate(960.036 39.247)" fill="#c1549c"/>
    <path id="Path_2251" data-name="Path 2251" d="M-820.947-.961c-.767-1.575-.313-3.441-1.193-4.99a51.934,51.934,0,0,1,4.206-7.085c1.179-.13,1.685.414,1.576,1.573a8.094,8.094,0,0,1-1.7,3.359c-1.077,1.639-.889,2.4,1.207,2.266a5.109,5.109,0,0,1,1.005.133c2.427.285,3.143,2.315,4.138,4.06-1.484.772-2.962,1.573-4.729.967C-817.894-1.564-819.437-1.007-820.947-.961Z" transform="translate(921.064 69.227)" fill="#6d4682"/>
    <path id="Path_2252" data-name="Path 2252" d="M-918.869-5.266c1.792-.592-.135-1.109-.034-1.667-.392-1.195-2-2.381-.024-3.592l2.471,2.936c2.568-3.709,4.744-7.58,7.776-10.811a1.7,1.7,0,0,1,2.327.624c-2.313,3.685-5.076,7.039-7.679,10.513-.437.585-2.022,1.649.282,1.974.413.951-.337,1.672-.488,2.511-.237.682.174,1.56-.613,2.079a3.229,3.229,0,0,1-2.042.524c-.782-.8-.218-2.6-2-2.647A1.648,1.648,0,0,1-918.869-5.266Z" transform="translate(968.218 71.914)" fill="#684f8e"/>
    <path id="Path_2253" data-name="Path 2253" d="M-933.9,7.093q-.01,1.222-.02,2.445c-5.712.138-11.411.824-17.138.481q.526-1.244,1.053-2.487A128.941,128.941,0,0,1-933.9,7.093Z" transform="translate(983.252 59.555)" fill="#512d5e"/>
    <path id="Path_2254" data-name="Path 2254" d="M-929.075-14.567c-1.081,1.2.468,2.391.024,3.592a55.442,55.442,0,0,1-8.05-10.48c-1.144-1.833-2.877-3.127-3.831-5.042l2.542-.509Z" transform="translate(978.366 75.956)" fill="#4c3a69"/>
    <path id="Path_2255" data-name="Path 2255" d="M-895.9-23.248l-2.326-.623,4.789-6.1c.242.929.228,1.962,1.073,2.645C-893.24-25.7-894.682-24.573-895.9-23.248Z" transform="translate(957.767 77.387)" fill="#394068"/>
    <path id="Path_2256" data-name="Path 2256" d="M-887.21,8.543c-7.591.324-15.183.629-22.785.52q.511-1.231,1.02-2.462c7.6-.189,15.185-.773,22.792-.515A6.319,6.319,0,0,0-887.21,8.543Z" transform="translate(963.443 60.025)" fill="#7f4995"/>
    <path id="Path_2257" data-name="Path 2257" d="M-812.439-20.1a3.425,3.425,0,0,0-1.575-1.573,65.479,65.479,0,0,1,5.187-9.292c.712.818,1.649.4,2.5.457C-807.973-26.813-810.875-23.852-812.439-20.1Z" transform="translate(917.144 77.868)" fill="#473a6b"/>
  </g>
</svg>
