<svg xmlns="http://www.w3.org/2000/svg" width="23.615" height="22.372" viewBox="0 0 23.615 22.372">
  <path id="wallet" d="M25.372,21.643v1.243a2.486,2.486,0,0,1-2.486,2.486H5.486A2.485,2.485,0,0,1,3,22.886V5.486A2.486,2.486,0,0,1,5.486,3h17.4a2.486,2.486,0,0,1,2.486,2.486V6.729H14.186A2.485,2.485,0,0,0,11.7,9.214v9.943a2.486,2.486,0,0,0,2.486,2.486m0-2.486H26.615V9.214H14.186m4.972,6.836a1.864,1.864,0,1,1,1.864-1.864A1.864,1.864,0,0,1,19.157,16.05Z" transform="translate(-3 -3)" fill="#f60"/>
</svg>
